# xmcd
#
# Track frame offsets: 
#        150
#        19006
#        38736
#        56990
#        77963
#        92827
#        120406
#        133809
#        153879
#        172090
#        188497
#        210534
#        228620
#        255246
#
# Disc length: 3528 seconds
#
# Revision: 6
# Processed by: cddbd v1.5.2PL0 Copyright (c) Steve Scherf et al.
# Submitted via: ExactAudioCopy v1.0b4
#
DISCID=b50dc60e
DTITLE=Queen and Paul Rodgers - The Cosmos Rocks
DYEAR=2008
DGENRE=Rock
TTITLE0=Cosmos Rockin'
TTITLE1=Time To Shine
TTITLE2=Still Burnin'
TTITLE3=Small
TTITLE4=Warboys
TTITLE5=We Believe
TTITLE6=Call Me
TTITLE7=Voodoo
TTITLE8=Some Things That Glitter
TTITLE9=C-lebrity
TTITLE10=Through The Night
TTITLE11=Say It's Not True
TTITLE12=Surf's Up . . . School's Out !
TTITLE13=Small reprise
EXTD=Limited Editon with DVD\nSuper Live in Japan - Highlights YEAR: 2
EXTD=008
EXTT0=
EXTT1=
EXTT2=
EXTT3=
EXTT4=
EXTT5=
EXTT6=
EXTT7=
EXTT8=
EXTT9=
EXTT10=
EXTT11=
EXTT12=
EXTT13=
PLAYORDER=
